{"title":"Cedar.Rapids.2011.720p.BRRip.x264.Feel-Free","uid":6440102,"size":2214727166,"categoryP":"video","categoryS":"hd___movies","magnet":"?xt=urn:btih:7f1c0667d6896c4f33d75f5b1a35a9d3da4e5670&amp;dn=Cedar.Rapids.2011.720p.BRRip.x264.Feel-Free&amp;tr=udp%3A%2F%2Ftracker.openbittorrent.com%3A80&amp;tr=udp%3A%2F%2Fopen.demonii.com%3A1337&amp;tr=udp%3A%2F%2Ftracker.coppersurfer.tk%3A6969&amp;tr=udp%3A%2F%2Fexodus.desync.com%3A6969","seeders":1,"leechers":1,"uploader":".BONE.","files":11,"time":1306951587,"description":"Genre:Comedy\n Language:English\n  &lt;a href=&quot;\nhttp://www.imdb.com/title/tt1477837/&quot; rel=&quot;nofollow&quot; target=&quot;_NEW&quot;&gt;\nhttp://www.imdb.com/title/tt1477837/&lt;/a&gt;\n\n Source:BluRay.720p.DTS.x264-CHD Thanks!\n \n\nFormat : MPEG-4\n Format profile : Base Media\n Codec ID : isom\n File size : 2.06 GiB\n Duration : 1h 26mn\n Overall bit rate : 3 384 Kbps\n \nVideo\n ID : 1\n Format : AVC\n Format/Info : Advanced Video Codec\n Format profile : &lt;a class=&quot;__cf_email__&quot; href=&quot;/cdn-cgi/l/email-protection&quot; data-cfemail=&quot;f5bd9c929db5b9c1dbc4&quot;&gt;[email&amp;#160;protected]&lt;/a&gt;&lt;script cf-hash='f9e31' type=&quot;text/javascript&quot;&gt;\n/* &lt;![CDATA[ */!function(){try{var t=&quot;currentScript&quot;in document?document.currentScript:function(){for(var t=document.getElementsByTagName(&quot;script&quot;),e=t.length;e--;)if(t[e].getAttribute(&quot;cf-hash&quot;))return t[e]}();if(t&amp;&amp;t.previousSibling){var e,r,n,i,c=t.previousSibling,a=c.getAttribute(&quot;data-cfemail&quot;);if(a){for(e=&quot;&quot;,r=parseInt(a.substr(0,2),16),n=2;a.length-n;n+=2)i=parseInt(a.substr(n,2),16)^r,e+=String.fromCharCode(i);e=document.createTextNode(e),c.parentNode.replaceChild(e,c)}}}catch(u){}}();/* ]]&gt; */&lt;/script&gt;\n Format settings, CABAC : Yes\n Format settings, ReFrames : 3 frames\n Codec ID : avc1\n Codec ID/Info : Advanced Video Coding\n Duration : 1h 26mn\n Bit rate mode : Variable\n Bit rate : 3 000 Kbps\n Maximum bit rate : 11.5 Mbps\n Width : 1 280 pixels\n Height : 688 pixels\n Display aspect ratio : 1.860\n Frame rate mode : Constant\n Frame rate : 23.976 fps\n Color space : YUV\n Chroma subsampling : 4:2:0\n Bit depth : 8 bits\n Scan type : Progressive\n Bits/(Pixel*Frame) : 0.142\n Stream size : 1.79 GiB (87%)\n Writing library : x264\n \nAudio\n ID : 2\n Format : AAC\n Format/Info : Advanced Audio Codec\n Format version : Version 4\n Format profile : LC\n Format settings, SBR : No\n Codec ID : 40\n Duration : 1h 26mn\n Bit rate mode : Variable\n Bit rate : 429 Kbps\n Maximum bit rate : 539 Kbps\n Channel(s) : 6 channels\n Channel positions : Front: L C R, Side: L R, LFE\n Sampling rate : 48.0 KHz\n Stream size : 267 MiB (13%)\n \n\nPlot:\n Tim Lippe has no idea what he's in for when he's sent to Cedar Rapids, Iowa to represent his company at an annual insurance convention, where he soon finds himself under the &quot;guidance&quot; of three convention veterans.\n  &lt;a href=&quot;\nhttp://www.pix2links.com/images/29594507660238651468.png&quot; rel=&quot;nofollow&quot; target=&quot;_NEW&quot;&gt;\nhttp://www.pix2links.com/images/29594507660238651468.png&lt;/a&gt;\n &lt;a href=&quot;\nhttp://www.pix2links.com/images/10357788901082522216.png&quot; rel=&quot;nofollow&quot; target=&quot;_NEW&quot;&gt;\nhttp://www.pix2links.com/images/10357788901082522216.png&lt;/a&gt;\n &lt;a href=&quot;\nhttp://www.pix2links.com/images/16567283527311520194.png&quot; rel=&quot;nofollow&quot; target=&quot;_NEW&quot;&gt;\nhttp://www.pix2links.com/images/16567283527311520194.png&lt;/a&gt;\n &lt;a href=&quot;\nhttp://www.pix2links.com/images/40734682379378430756.png&quot; rel=&quot;nofollow&quot; target=&quot;_NEW&quot;&gt;\nhttp://www.pix2links.com/images/40734682379378430756.png&lt;/a&gt;\n &lt;a href=&quot;\nhttp://www.pix2links.com/images/41313865812851903707.png&quot; rel=&quot;nofollow&quot; target=&quot;_NEW&quot;&gt;\nhttp://www.pix2links.com/images/41313865812851903707.png&lt;/a&gt;\n &lt;a href=&quot;\nhttp://www.pix2links.com/images/23722475286586551865.png&quot; rel=&quot;nofollow&quot; target=&quot;_NEW&quot;&gt;\nhttp://www.pix2links.com/images/23722475286586551865.png&lt;/a&gt;\n &lt;a href=&quot;\nhttp://www.pix2links.com/images/21549940791392055503.png&quot; rel=&quot;nofollow&quot; target=&quot;_NEW&quot;&gt;\nhttp://www.pix2links.com/images/21549940791392055503.png&lt;/a&gt;","torrent":{"xt":"urn:btih:7f1c0667d6896c4f33d75f5b1a35a9d3da4e5670","amp;dn":"Cedar.Rapids.2011.720p.BRRip.x264.Feel-Free","amp;tr":["udp%3A%2F%2Ftracker.openbittorrent.com%3A80","udp%3A%2F%2Fopen.demonii.com%3A1337","udp%3A%2F%2Ftracker.coppersurfer.tk%3A6969","udp%3A%2F%2Fexodus.desync.com%3A6969"],"infoHash":"7f1c0667d6896c4f33d75f5b1a35a9d3da4e5670","infoHashBuffer":{"type":"Buffer","data":[127,28,6,103,214,137,108,79,51,215,95,91,26,53,169,211,218,78,86,112]},"announce":[],"urlList":[]}}